<?xml version="1.0" encoding="UTF-8" standalone="no"?>
<svg
   viewBox="0 0 40.000005 40.000002"
   version="1.1"
   id="svg85"
   sodipodi:docname="intellifold_logo.svg"
   width="40.000004"
   height="40"
   inkscape:version="1.1 (c68e22c387, 2021-05-23)"
   xmlns:inkscape="http://www.inkscape.org/namespaces/inkscape"
   xmlns:sodipodi="http://sodipodi.sourceforge.net/DTD/sodipodi-0.dtd"
   xmlns="http://www.w3.org/2000/svg"
   xmlns:svg="http://www.w3.org/2000/svg"
   xmlns:rdf="http://www.w3.org/1999/02/22-rdf-syntax-ns#"
   xmlns:cc="http://creativecommons.org/ns#"
   xmlns:dc="http://purl.org/dc/elements/1.1/">
  <sodipodi:namedview
     id="namedview87"
     pagecolor="#ffffff"
     bordercolor="#666666"
     borderopacity="1.0"
     inkscape:pageshadow="2"
     inkscape:pageopacity="0.0"
     inkscape:pagecheckerboard="0"
     showgrid="false"
     fit-margin-top="2.5065"
     fit-margin-left="3.000005"
     fit-margin-right="3.000005"
     fit-margin-bottom="2.5065"
     inkscape:zoom="15.412621"
     inkscape:cx="23.130394"
     inkscape:cy="19.399685"
     inkscape:window-width="2100"
     inkscape:window-height="1234"
     inkscape:window-x="-9"
     inkscape:window-y="-9"
     inkscape:window-maximized="1"
     inkscape:current-layer="g73" />
  <defs
     id="defs67">
    <style
       id="style49">.cls-1,.cls-2,.cls-5{fill:none;}.cls-1,.cls-2{stroke:#000;stroke-width:2px;}.cls-1,.cls-2,.cls-8{stroke-miterlimit:10;}.cls-1{filter:url(#luminosity-noclip);}.cls-2{filter:url(#luminosity-noclip-2);}.cls-3{isolation:isolate;}.cls-4{mask:url(#mask);}.cls-5{stroke:#6e6e6e;stroke-linejoin:round;stroke-width:1.5px;}.cls-5,.cls-8{stroke-linecap:round;}.cls-6{mask:url(#mask-2);}.cls-7{fill:#6e6e6e;mix-blend-mode:multiply;}.cls-8{fill:#afb1b3;stroke:#4eb832;stroke-width:1.25px;}</style>
    <filter
       id="luminosity-noclip"
       x="-1.1799999"
       y="-1.14"
       width="17.26"
       height="17.620001"
       filterUnits="userSpaceOnUse"
       color-interpolation-filters="sRGB">
      <feFlood
         flood-color="#fff"
         result="bg"
         id="feFlood51" />
      <feBlend
         in="SourceGraphic"
         in2="bg"
         id="feBlend53"
         mode="normal" />
    </filter>
    <mask
       id="mask"
       x="-1.18"
       y="-1.14"
       width="17.26"
       height="17.62"
       maskUnits="userSpaceOnUse">
      <line
         class="cls-1"
         x1="-0.47999999"
         y1="15.25"
         x2="15.21"
         y2="-0.44"
         id="line56" />
    </mask>
    <filter
       id="luminosity-noclip-2"
       x="0.56999999"
       y="-0.02"
       width="14.23"
       height="14.23"
       filterUnits="userSpaceOnUse"
       color-interpolation-filters="sRGB">
      <feFlood
         flood-color="#fff"
         result="bg"
         id="feFlood59" />
      <feBlend
         in="SourceGraphic"
         in2="bg"
         id="feBlend61"
         mode="normal" />
    </filter>
    <mask
       id="mask-2"
       x="0.57"
       y="-0.02"
       width="14.23"
       height="14.23"
       maskUnits="userSpaceOnUse">
      <line
         class="cls-2"
         x1="1.27"
         y1="13.5"
         x2="14.09"
         y2="0.69"
         id="line64" />
    </mask>
  </defs>
  <title
     id="title69">Asset 4</title>
  <g
     class="cls-3"
     id="g83"
     style="display:inline"
     inkscape:groupmode="layer"
     transform="translate(11.931357,11.763816)">
    <g
       class="cls-4"
       mask="url(#mask)"
       id="g73"
       style="display:inline"
       transform="matrix(2.1233129,0,0,2.1233129,-9.0742297,-9.2624287)">
      <path
         class="cls-5"
         d="m 0.82,3.23 a 2,2 0 0 1 2,-2 h 10.51 a 2,2 0 0 1 2,2 v 7.5 a 2,2 0 0 1 -2,2 h -2.6 l -2.6,3 -2.6,-3 H 2.82 a 2,2 0 0 1 -2,-2 z"
         id="path71"
         style="display:inline" />
    </g>
    <g
       class="cls-6"
       mask="url(#mask-2)"
       id="g77"
       style="display:inline"
       transform="matrix(2.1233129,0,0,2.1233129,-9.0742297,-9.2624287)">
      <path
         class="cls-7"
         d="m 4.62,9.73 a 0.27,0.27 0 0 0 0.31,0.3 0.27,0.27 0 0 0 0.3,-0.3 0.88,0.88 0 0 1 0.8,-0.9 h 0.2 c 0.1,0.1 0.1,0.2 0.2,0.3 a 1.94,1.94 0 0 0 2.79,0.4 0.82,0.82 0 0 0 0.4,-0.4 c 0.1,-0.1 0.1,-0.2 0.2,-0.3 H 10 a 0.9,0.9 0 0 1 0.9,0.9 0.3,0.3 0 0 0 0.6,0 1.36,1.36 0 0 0 -1.4,-1.4 v -0.6 h 1.1 c 0.2,0 0.3,-0.1 0.3,-0.31 a 0.27,0.27 0 0 0 -0.3,-0.3 h -1 V 6.62 A 1.43,1.43 0 0 0 11.5,5.13 0.27,0.27 0 0 0 11.2,4.82 c -0.2,0 -0.3,0.1 -0.3,0.31 a 1,1 0 0 1 -0.8,0.9 C 10,5.93 10,5.73 9.9,5.63 A 1.44,1.44 0 0 0 9.2,5.23 V 4.82 A 1.11,1.11 0 0 0 8.13,3.73 1.2,1.2 0 0 0 6.93,4.82 V 5.13 C 6.72,5.32 6.43,5.42 6.22,5.63 6.01,5.84 6.12,5.82 6.02,6.03 A 0.82,0.82 0 0 1 5.22,5.13 0.27,0.27 0 0 0 4.92,4.82 c -0.2,0 -0.3,0.1 -0.3,0.31 a 1.42,1.42 0 0 0 1.3,1.4 v 0.6 h -1 a 0.27,0.27 0 0 0 -0.3,0.3 c 0,0.2 0.1,0.3 0.31,0.3 H 6 v 0.6 a 1.36,1.36 0 0 0 -1.38,1.4 z"
         id="path75"
         style="display:inline" />
    </g>
    <line
       class="cls-8"
       x1="-7.6042814"
       y1="22.518702"
       x2="22.823435"
       y2="-7.9302454"
       id="line79"
       style="display:inline" />
  </g>
  <metadata
     id="metadata169">
    <rdf:RDF>
      <cc:Work
         rdf:about="">
        <dc:title>Asset 4</dc:title>
      </cc:Work>
    </rdf:RDF>
  </metadata>
</svg>
