<svg xmlns="http://www.w3.org/2000/svg" xmlns:xlink="http://www.w3.org/1999/xlink" viewBox="0 0 16.08 16.48"><defs><style>.cls-1,.cls-2,.cls-5,.cls-8{fill:none;}.cls-1,.cls-2{stroke:#000;stroke-width:2px;}.cls-1,.cls-2,.cls-8{stroke-miterlimit:10;}.cls-1{filter:url(#luminosity-noclip);}.cls-2{filter:url(#luminosity-noclip-2);}.cls-3{isolation:isolate;}.cls-4{mask:url(#mask);}.cls-5,.cls-8{stroke:#6e6e6e;stroke-linecap:round;}.cls-5{stroke-linejoin:round;stroke-width:1.5px;}.cls-6{mask:url(#mask-2);}.cls-7{fill:#6e6e6e;mix-blend-mode:multiply;}.cls-8{stroke-width:1.25px;}</style><filter id="luminosity-noclip" x="-1.18" y="-1.14" width="17.26" height="17.62" filterUnits="userSpaceOnUse" color-interpolation-filters="sRGB"><feFlood flood-color="#fff" result="bg"/><feBlend in="SourceGraphic" in2="bg"/></filter><mask id="mask" x="-1.18" y="-1.14" width="17.26" height="17.62" maskUnits="userSpaceOnUse"><line class="cls-1" x1="-0.48" y1="15.25" x2="15.21" y2="-0.44"/></mask><filter id="luminosity-noclip-2" x="0.57" y="-0.02" width="14.23" height="14.23" filterUnits="userSpaceOnUse" color-interpolation-filters="sRGB"><feFlood flood-color="#fff" result="bg"/><feBlend in="SourceGraphic" in2="bg"/></filter><mask id="mask-2" x="0.57" y="-0.02" width="14.23" height="14.23" maskUnits="userSpaceOnUse"><line class="cls-2" x1="1.27" y1="13.5" x2="14.09" y2="0.69"/></mask></defs><title>Asset 1</title><g class="cls-3"><g id="Layer_2" data-name="Layer 2"><g id="Layer_1-2" data-name="Layer 1"><g class="cls-4"><path class="cls-5" d="M.82,3.23a2,2,0,0,1,2-2H13.33a2,2,0,0,1,2,2v7.5a2,2,0,0,1-2,2h-2.6l-2.6,3-2.6-3H2.82a2,2,0,0,1-2-2Z"/></g><g class="cls-6"><path class="cls-7" d="M4.62,9.73a.27.27,0,0,0,.31.3.27.27,0,0,0,.3-.3.88.88,0,0,1,.8-.9h.2c.1.1.1.2.2.3a1.94,1.94,0,0,0,2.79.4.82.82,0,0,0,.4-.4c.1-.1.1-.2.2-.3H10a.9.9,0,0,1,.9.9.3.3,0,0,0,.6,0,1.36,1.36,0,0,0-1.4-1.4v-.6h1.1c.2,0,.3-.1.3-.31a.27.27,0,0,0-.3-.3h-1v-.5a1.43,1.43,0,0,0,1.3-1.49.27.27,0,0,0-.3-.31c-.2,0-.3.1-.3.31a1,1,0,0,1-.8.9c-.1-.1-.1-.3-.2-.4a1.44,1.44,0,0,0-.7-.4V4.82A1.11,1.11,0,0,0,8.13,3.73a1.2,1.2,0,0,0-1.2,1.09v.31c-.21.19-.5.29-.71.5s-.1.19-.2.4a.82.82,0,0,1-.8-.9.27.27,0,0,0-.3-.31c-.2,0-.3.1-.3.31a1.42,1.42,0,0,0,1.3,1.4v.6h-1a.27.27,0,0,0-.3.3c0,.2.1.3.31.3H6v.6A1.36,1.36,0,0,0,4.62,9.73Z"/></g><line class="cls-8" x1="0.63" y1="15.03" x2="15.02" y2="0.63"/></g></g></g></svg>