<svg xmlns="http://www.w3.org/2000/svg" viewBox="0 0 16 16"><defs><style>.cls-1{fill:none;stroke:#2f2f2f;stroke-linecap:round;stroke-linejoin:round;stroke-width:1.5px;}.cls-2{fill:#2f2f2f;}</style></defs><title>Asset 1</title><g id="Layer_2" data-name="Layer 2"><g id="Layer_1-2" data-name="Layer 1"><path class="cls-1" d="M.75,2.75a2,2,0,0,1,2-2h10.5a2,2,0,0,1,2,2v7.5a2,2,0,0,1-2,2H10.63L8,15.25l-2.62-3H2.75a2,2,0,0,1-2-2Z"/><path class="cls-2" d="M4.56,9.24a.29.29,0,1,0,.57,0A.85.85,0,0,1,6,8.38h.21a2.39,2.39,0,0,0,.21.34,2,2,0,0,0,2.81.4,1.94,1.94,0,0,0,.41-.4,2.39,2.39,0,0,0,.21-.34H10a.86.86,0,0,1,.85.86.29.29,0,1,0,.57,0A1.44,1.44,0,0,0,10,7.8a2.17,2.17,0,0,0,0-.25l0-.32h1.07a.29.29,0,0,0,0-.57h-1l0-.45V6.07a1.44,1.44,0,0,0,1.26-1.42.29.29,0,1,0-.57,0,.86.86,0,0,1-.81.86,1.62,1.62,0,0,0-.25-.39,1.48,1.48,0,0,0-.66-.41V4.36a1.15,1.15,0,1,0-2.3,0v.35a1.39,1.39,0,0,0-.66.41,1.44,1.44,0,0,0-.25.39.86.86,0,0,1-.81-.86.29.29,0,1,0-.57,0A1.42,1.42,0,0,0,5.82,6.06V6.2l0,.46h-1a.29.29,0,0,0,0,.57H5.91l0,.32A2.17,2.17,0,0,0,6,7.8,1.44,1.44,0,0,0,4.56,9.24Z"/></g></g></svg>